<svg width="209" height="87" viewBox="0 0 209 87" fill="none" xmlns="http://www.w3.org/2000/svg">
<path d="M43.3708 33.9218C45.1805 33.9218 46.6202 34.5104 47.6902 35.6877C48.7733 36.8649 49.3149 38.778 49.3149 41.4269V56.1562H44.52V41.6677C44.52 39.4068 43.6152 38.2763 41.8056 38.2763C41.2376 38.2763 40.6366 38.4302 40.0026 38.7379C39.3685 39.0456 38.8336 39.5205 38.3977 40.1626C38.4241 40.5907 38.4373 40.9252 38.4373 41.166V56.1562H33.7415V41.6677C33.7415 40.4503 33.5104 39.5807 33.0481 39.059C32.5858 38.5372 31.9385 38.2763 31.1064 38.2763C30.4723 38.2763 29.8251 38.4569 29.1647 38.8181C28.5174 39.166 27.9957 39.6944 27.5994 40.4035V56.1562H22.8046V34.2629H26.8069L27.1635 36.6308H27.4211C28.808 34.8248 30.6242 33.9218 32.8698 33.9218C33.9529 33.9218 34.9039 34.1559 35.7229 34.6241C36.5418 35.0923 37.1825 35.8281 37.6448 36.8315C38.3845 35.8549 39.2497 35.1258 40.2403 34.6442C41.2442 34.1626 42.2877 33.9218 43.3708 33.9218Z" fill="#389e0d"/>
<path d="M57.0206 69.4011H14.823V57.8666H19.1125V64.0033H52.731V57.9692H57.0206V69.4011Z" fill="black"/>
<path d="M25.6552 86.1009V81.8114H46.1587V86.1009H25.6552Z" fill="black"/>
<path d="M17.3884 77.6678V73.8297H54.3318V77.6678H17.3884Z" fill="black"/>
<path d="M57.0206 12.7044C54.9271 11.0214 52.7584 9.65316 50.5144 8.59959C48.2841 7.54601 45.9581 6.77294 43.5362 6.28036C41.1144 5.78778 38.5762 5.54149 35.9218 5.54149C33.2673 5.54149 30.7292 5.78778 28.3073 6.28036C25.8855 6.77294 23.5594 7.54601 21.3291 8.59959C19.0852 9.65316 16.9165 11.0214 14.823 12.7044V7.03975C17.7237 4.54949 20.9597 2.75706 24.5309 1.66244C28.0884 0.554135 31.8854 -1.52588e-05 35.9218 -1.52588e-05C39.9582 -1.52588e-05 43.7551 0.554135 47.3127 1.66244C50.8702 2.75706 54.1061 4.54949 57.0206 7.03975V12.7044Z" fill="black"/>
<path d="M58.7217 56.1654C60.4047 54.0719 61.7729 51.9032 62.8265 49.6593C63.8801 47.429 64.6531 45.1029 65.1457 42.6811C65.6383 40.2592 65.8846 37.7211 65.8846 35.0666C65.8846 32.4122 65.6383 29.874 65.1457 27.4522C64.6531 25.0303 63.8801 22.7043 62.8265 20.474C61.7729 18.23 60.4047 16.0613 58.7217 13.9678H64.3863C66.8766 16.8686 68.669 20.1045 69.7636 23.6757C70.872 27.2332 71.4261 31.0302 71.4261 35.0666C71.4261 39.103 70.872 42.9 69.7636 46.4575C68.669 50.015 66.8766 53.251 64.3863 56.1654H58.7217Z" fill="black"/>
<path d="M12.7045 56.1654C11.0215 54.0719 9.65322 51.9032 8.59965 49.6593C7.54608 47.429 6.773 45.1029 6.28042 42.6811C5.78784 40.2592 5.54155 37.7211 5.54155 35.0666C5.54155 32.4122 5.78784 29.874 6.28042 27.4522C6.773 25.0303 7.54608 22.7043 8.59965 20.474C9.65322 18.23 11.0215 16.0613 12.7045 13.9678H7.03981C4.54956 16.8686 2.75712 20.1045 1.6625 23.6757C0.554196 27.2332 4.57764e-05 31.0302 4.57764e-05 35.0666C4.57764e-05 39.103 0.554196 42.9 1.6625 46.4575C2.75712 50.015 4.54956 53.251 7.03981 56.1654H12.7045Z" fill="black"/>
<path d="M84.5798 42.0653V27.0964H88.1784L88.4657 28.6288H88.6709C89.2 28.045 89.8157 27.6072 90.5181 27.3153C91.2296 27.0143 92.0141 26.8638 92.8715 26.8638C93.7563 26.8638 94.5499 27.0553 95.2523 27.4384C95.9638 27.8124 96.5203 28.4236 96.9216 29.2719C97.3321 30.1111 97.5373 31.224 97.5373 32.6105V42.0653H93.2683V32.9799C93.2683 32.086 93.0996 31.4703 92.7621 31.1328C92.4337 30.7861 91.9776 30.6128 91.3938 30.6128C91.1019 30.6128 90.8009 30.6584 90.4907 30.7497C90.1897 30.8409 89.9024 30.9777 89.6287 31.1601C89.3642 31.3426 89.1316 31.5752 88.9309 31.858V42.0653H84.5798ZM101.779 42.0653V32.9799C101.779 32.086 101.597 31.4703 101.232 31.1328C100.867 30.7861 100.397 30.6128 99.8224 30.6128C99.5031 30.6128 99.1838 30.663 98.8646 30.7633C98.5544 30.8546 98.258 31.0005 97.9752 31.2012C97.6924 31.4019 97.4461 31.6618 97.2363 31.9811L96.3743 29.1488C97.0402 28.3369 97.7928 27.7531 98.632 27.3974C99.4712 27.0416 100.315 26.8638 101.163 26.8638C102.121 26.8638 102.974 27.0553 103.722 27.4384C104.47 27.8216 105.058 28.4464 105.487 29.313C105.916 30.1795 106.13 31.3243 106.13 32.7473V42.0653H101.779Z" fill="black"/>
<path d="M113.911 42.3389C112.379 42.3389 111.184 41.9421 110.326 41.1485C109.478 40.3458 109.054 39.3014 109.054 38.0152C109.054 36.6013 109.542 35.4976 110.518 34.704C111.503 33.9104 113.09 33.4406 115.28 33.2946L118.427 33.0347L118.892 35.4428L115.717 35.7028C114.878 35.7667 114.272 35.9582 113.898 36.2775C113.533 36.5967 113.35 37.0346 113.35 37.591C113.35 38.1383 113.519 38.5625 113.857 38.8635C114.194 39.1554 114.687 39.3014 115.334 39.3014C115.736 39.3014 116.146 39.233 116.566 39.0961C116.985 38.9502 117.368 38.7039 117.715 38.3573V32.8842C117.715 32.2 117.601 31.6618 117.373 31.2696C117.154 30.8774 116.794 30.5991 116.292 30.435C115.8 30.2616 115.138 30.175 114.308 30.175C113.733 30.175 113.081 30.2252 112.351 30.3255C111.622 30.4167 110.924 30.5672 110.258 30.777V27.4932C110.988 27.2834 111.786 27.1283 112.652 27.028C113.528 26.9185 114.34 26.8638 115.088 26.8638C116.675 26.8638 117.975 27.0599 118.988 27.4521C120.009 27.8444 120.762 28.5011 121.245 29.4224C121.729 30.3346 121.97 31.5797 121.97 33.1578V42.0653H118.386L118.085 40.5739H117.879C117.432 41.185 116.862 41.632 116.169 41.9148C115.476 42.1975 114.723 42.3389 113.911 42.3389Z" fill="black"/>
<path d="M135.861 42.0653L130.566 34.3756L135.478 27.0964H140.13L134.985 34.8682V33.7188L140.609 42.0653H135.861ZM129.635 36.127V32.6379H132.112V36.127H129.635ZM125.654 42.0653V19.954H130.005V42.0653H125.654Z" fill="black"/>
<path d="M146.273 42.3389C144.741 42.3389 143.546 41.9421 142.688 41.1485C141.84 40.3458 141.416 39.3014 141.416 38.0152C141.416 36.6013 141.904 35.4976 142.88 34.704C143.865 33.9104 145.452 33.4406 147.641 33.2946L150.788 33.0347L151.254 35.4428L148.079 35.7028C147.24 35.7667 146.633 35.9582 146.259 36.2775C145.895 36.5967 145.712 37.0346 145.712 37.591C145.712 38.1383 145.881 38.5625 146.218 38.8635C146.556 39.1554 147.048 39.3014 147.696 39.3014C148.097 39.3014 148.508 39.233 148.928 39.0961C149.347 38.9502 149.73 38.7039 150.077 38.3573V32.8842C150.077 32.2 149.963 31.6618 149.735 31.2696C149.516 30.8774 149.156 30.5991 148.654 30.435C148.161 30.2616 147.5 30.175 146.67 30.175C146.095 30.175 145.443 30.2252 144.713 30.3255C143.984 30.4167 143.286 30.5672 142.62 30.777V27.4932C143.35 27.2834 144.148 27.1283 145.014 27.028C145.89 26.9185 146.702 26.8638 147.45 26.8638C149.037 26.8638 150.337 27.0599 151.349 27.4521C152.371 27.8444 153.124 28.5011 153.607 29.4224C154.091 30.3346 154.332 31.5797 154.332 33.1578V42.0653H150.747L150.446 40.5739H150.241C149.794 41.185 149.224 41.632 148.531 41.9148C147.838 42.1975 147.085 42.3389 146.273 42.3389Z" fill="black"/>
<path d="M163.762 42.2705C163.197 42.2705 162.604 42.2568 161.983 42.2295C161.363 42.2112 160.734 42.1793 160.095 42.1337C159.457 42.0881 158.827 42.0242 158.207 41.9421V22.2664C158.836 22.1295 159.507 22.011 160.218 21.9106C160.939 21.8103 161.673 21.7327 162.421 21.678C163.169 21.6233 163.904 21.5959 164.624 21.5959C168.3 21.5959 171.073 22.4351 172.943 24.1135C174.822 25.7828 175.762 28.3917 175.762 31.9401C175.762 34.3573 175.32 36.3277 174.435 37.851C173.55 39.3652 172.218 40.4826 170.439 41.2033C168.661 41.9148 166.435 42.2705 163.762 42.2705ZM164.912 38.6583C166.316 38.6583 167.484 38.4394 168.414 38.0015C169.354 37.5545 170.052 36.8385 170.508 35.8533C170.973 34.859 171.206 33.5501 171.206 31.9264C171.206 30.3118 170.968 29.012 170.494 28.0268C170.029 27.0325 169.331 26.3119 168.401 25.8649C167.47 25.4088 166.316 25.1808 164.939 25.1808C164.592 25.1808 164.214 25.199 163.803 25.2355C163.393 25.272 163.01 25.3222 162.654 25.386V38.5625C163.028 38.599 163.397 38.6264 163.762 38.6446C164.136 38.6537 164.519 38.6583 164.912 38.6583Z" fill="black"/>
<path d="M186.626 42.3526C184.747 42.3526 183.201 42.0835 181.988 41.5453C180.774 41.0071 179.871 40.1634 179.278 39.014C178.695 37.8647 178.403 36.3824 178.403 34.5671C178.403 32.9161 178.672 31.5159 179.21 30.3665C179.757 29.2172 180.546 28.3461 181.577 27.7531C182.617 27.1602 183.876 26.8638 185.354 26.8638C186.767 26.8638 187.958 27.1648 188.925 27.7668C189.892 28.3597 190.621 29.24 191.114 30.4076C191.607 31.5752 191.853 33.0073 191.853 34.704V35.8396H180.893V33.3357H188.487L187.789 33.5957C187.789 32.6105 187.698 31.826 187.515 31.2422C187.333 30.6584 187.055 30.2434 186.681 29.9971C186.316 29.7508 185.86 29.6277 185.313 29.6277C184.756 29.6277 184.286 29.7508 183.903 29.9971C183.529 30.2434 183.242 30.6584 183.041 31.2422C182.85 31.8169 182.754 32.5968 182.754 33.582V35.3334C182.754 36.2547 182.886 36.989 183.151 37.5363C183.424 38.0745 183.885 38.4622 184.533 38.6993C185.189 38.9365 186.092 39.0551 187.242 39.0551C187.826 39.0551 188.437 39.014 189.075 38.9319C189.723 38.8407 190.371 38.7221 191.018 38.5762V41.8464C190.225 42.0288 189.468 42.1565 188.747 42.2295C188.035 42.3116 187.328 42.3526 186.626 42.3526Z" fill="black"/>
<path d="M198.185 42.0653L192.931 27.0964H197.487L201.209 38.6172H200.894L204.616 27.0964H208.912L203.645 42.0653H198.185Z" fill="black"/>
<path d="M86.4577 65.8875C85.9903 65.8875 85.5427 65.8561 85.1151 65.7934C84.6932 65.7307 84.2828 65.6366 83.8837 65.5112V64.4166C84.3398 64.5534 84.7759 64.6532 85.1921 64.7159C85.6083 64.7729 86.0302 64.8014 86.4577 64.8014C87.2616 64.8014 87.8431 64.6646 88.2023 64.3909C88.5672 64.1173 88.7496 63.7325 88.7496 63.2365C88.7496 62.8146 88.6413 62.4925 88.4246 62.2701C88.208 62.0421 87.8403 61.8739 87.3215 61.7656L86.0644 61.509C85.2206 61.3266 84.6163 61.0273 84.2514 60.6111C83.8922 60.1892 83.7126 59.6476 83.7126 58.9863C83.7126 58.2052 84.012 57.5638 84.6106 57.0621C85.2149 56.5547 86.1413 56.301 87.3899 56.301C87.789 56.301 88.1681 56.3238 88.5273 56.3694C88.8921 56.415 89.2428 56.4835 89.5791 56.5747V57.6779C89.2028 57.5752 88.8408 57.5011 88.4931 57.4555C88.151 57.4099 87.7918 57.3871 87.4155 57.3871C86.8283 57.3871 86.358 57.4584 86.0045 57.6009C85.6567 57.7377 85.4059 57.9258 85.252 58.1653C85.098 58.399 85.0211 58.6613 85.0211 58.9521C85.0211 59.3169 85.1237 59.6191 85.3289 59.8585C85.5342 60.098 85.8933 60.2747 86.4064 60.3887L87.6635 60.6453C88.5187 60.822 89.1316 61.1128 89.5022 61.5176C89.8784 61.9224 90.0666 62.4725 90.0666 63.168C90.0666 64.0061 89.7587 64.6703 89.143 65.1606C88.533 65.6452 87.6379 65.8875 86.4577 65.8875Z" fill="black"/>
<path d="M96.0903 65.8875C95.2922 65.8875 94.5966 65.7222 94.0037 65.3915C93.4108 65.0551 92.9518 64.5363 92.6269 63.8351C92.3019 63.1281 92.1394 62.2131 92.1394 61.09C92.1394 59.9783 92.2991 59.0689 92.6183 58.362C92.9433 57.655 93.4022 57.1362 93.9951 56.8056C94.5881 56.4692 95.2865 56.301 96.0903 56.301C96.8942 56.301 97.5926 56.4692 98.1855 56.8056C98.7784 57.1362 99.2345 57.655 99.5538 58.362C99.8787 59.0632 100.041 59.9726 100.041 61.09C100.041 62.2017 99.8759 63.111 99.5452 63.818C99.2202 64.5249 98.7613 65.0466 98.1684 65.3829C97.5812 65.7193 96.8885 65.8875 96.0903 65.8875ZM96.0903 64.7758C96.6148 64.7758 97.0681 64.6617 97.45 64.4337C97.832 64.2057 98.1256 63.8265 98.3309 63.2963C98.5418 62.7604 98.6473 62.0335 98.6473 61.1156C98.6473 60.1807 98.5418 59.4452 98.3309 58.9093C98.1256 58.3677 97.8292 57.9857 97.4415 57.7634C97.0595 57.5353 96.6091 57.4213 96.0903 57.4213C95.5658 57.4213 95.1126 57.5353 94.7306 57.7634C94.3486 57.9857 94.0522 58.3648 93.8412 58.9007C93.636 59.431 93.5334 60.155 93.5334 61.0729C93.5334 62.0022 93.636 62.7376 93.8412 63.2792C94.0522 63.8151 94.3486 64.2 94.7306 64.4337C95.1126 64.6617 95.5658 64.7758 96.0903 64.7758Z" fill="black"/>
<path d="M103.197 65.725V55.0439C103.197 54.3256 103.322 53.7213 103.573 53.231C103.829 52.735 104.209 52.3615 104.71 52.1107C105.212 51.8598 105.831 51.7344 106.566 51.7344C106.777 51.7344 106.988 51.743 107.199 51.7601C107.415 51.7772 107.626 51.8028 107.832 51.837V52.983C107.638 52.9488 107.447 52.9259 107.259 52.9145C107.076 52.8974 106.891 52.8889 106.703 52.8889C105.979 52.8889 105.44 53.0485 105.087 53.3678C104.733 53.687 104.556 54.2258 104.556 54.9841V65.725H103.197ZM101.452 57.5752V56.4464H107.473V57.5752H101.452Z" fill="black"/>
<path d="M112.501 65.8875C111.555 65.8875 110.819 65.6452 110.295 65.1606C109.77 64.6703 109.508 63.8892 109.508 62.8174V56.4464L109.73 53.0685H110.876V62.5951C110.876 63.3761 111.036 63.9235 111.355 64.237C111.68 64.5506 112.162 64.7074 112.8 64.7074C112.971 64.7074 113.148 64.696 113.331 64.6731C113.513 64.6446 113.713 64.6076 113.929 64.562V65.7165C113.701 65.7735 113.467 65.8162 113.228 65.8447C112.988 65.8732 112.746 65.8875 112.501 65.8875ZM107.763 57.5752V56.4464H113.792V57.5752H107.763Z" fill="black"/>
<path d="M117.566 65.725L114.846 56.4464H116.189L118.506 64.5363H118.369L120.79 56.4464H122.406L124.826 64.5363H124.672L126.998 56.4464H128.289L125.587 65.725H123.971L121.508 57.541H121.662L119.182 65.725H117.566Z" fill="black"/>
<path d="M132.756 65.8789C131.884 65.8789 131.197 65.6537 130.695 65.2034C130.199 64.753 129.951 64.1344 129.951 63.3476C129.951 62.5381 130.216 61.9081 130.746 61.4577C131.282 61.0016 132.14 60.7166 133.32 60.6025L135.809 60.3374L135.937 61.2439L133.406 61.5176C132.67 61.5917 132.14 61.7713 131.815 62.0563C131.496 62.3357 131.336 62.7234 131.336 63.2194C131.336 63.7382 131.485 64.1344 131.781 64.4081C132.077 64.6817 132.519 64.8185 133.107 64.8185C133.511 64.8185 133.919 64.733 134.329 64.562C134.74 64.3852 135.108 64.0916 135.433 63.6812V59.5849C135.433 59.0148 135.344 58.5758 135.167 58.2679C134.991 57.9544 134.726 57.7349 134.372 57.6094C134.019 57.484 133.574 57.4213 133.038 57.4213C132.69 57.4213 132.294 57.4527 131.849 57.5154C131.41 57.5781 130.971 57.6836 130.532 57.8318V56.7115C130.932 56.5804 131.371 56.4806 131.849 56.4122C132.334 56.3381 132.79 56.301 133.218 56.301C134.004 56.301 134.66 56.4036 135.185 56.6089C135.715 56.8141 136.111 57.1619 136.373 57.6522C136.641 58.1368 136.775 58.801 136.775 59.6447V65.725H135.629L135.527 64.6903H135.441C135.139 65.0722 134.751 65.3658 134.278 65.5711C133.811 65.7763 133.303 65.8789 132.756 65.8789Z" fill="black"/>
<path d="M139.942 65.725V56.4464H141.088L141.199 57.6864H141.284C141.604 57.2474 142.003 56.9168 142.482 56.6944C142.966 56.4664 143.471 56.3523 143.995 56.3523C144.138 56.3523 144.266 56.358 144.38 56.3694C144.5 56.3808 144.617 56.3979 144.731 56.4207V57.6864C144.6 57.6636 144.469 57.6493 144.337 57.6436C144.212 57.6379 144.075 57.6351 143.927 57.6351C143.625 57.6351 143.308 57.6836 142.978 57.7805C142.653 57.8717 142.345 58.0171 142.054 58.2166C141.763 58.4104 141.515 58.6556 141.31 58.9521V65.725H139.942Z" fill="black"/>
<path d="M150.48 65.8875C149.517 65.8875 148.707 65.725 148.052 65.4C147.402 65.0694 146.911 64.5534 146.581 63.8522C146.25 63.1452 146.085 62.2217 146.085 61.0814C146.085 59.9925 146.236 59.0946 146.538 58.3876C146.846 57.6807 147.279 57.1562 147.838 56.8141C148.402 56.4721 149.069 56.301 149.839 56.301C150.597 56.301 151.241 56.4749 151.772 56.8227C152.307 57.1647 152.715 57.6921 152.994 58.4047C153.274 59.1117 153.413 60.0153 153.413 61.1156V61.5347H146.829V60.6025H152.404L152.105 60.8078C152.105 59.9412 152.014 59.2514 151.831 58.7383C151.655 58.2252 151.395 57.8574 151.053 57.6351C150.717 57.407 150.306 57.293 149.822 57.293C149.343 57.293 148.927 57.4042 148.573 57.6265C148.22 57.8489 147.946 58.2166 147.752 58.7297C147.564 59.2428 147.47 59.9355 147.47 60.8078V61.2867C147.47 62.1418 147.584 62.826 147.812 63.3391C148.046 63.8465 148.396 64.2142 148.864 64.4423C149.331 64.6646 149.924 64.7758 150.643 64.7758C150.996 64.7758 151.361 64.7444 151.737 64.6817C152.119 64.6133 152.524 64.5192 152.952 64.3995V65.5198C152.507 65.6452 152.082 65.7364 151.677 65.7934C151.278 65.8561 150.879 65.8875 150.48 65.8875Z" fill="black"/>
<path d="M163.133 65.8875C162.666 65.8875 162.218 65.8561 161.791 65.7934C161.369 65.7307 160.958 65.6366 160.559 65.5112V64.4166C161.015 64.5534 161.451 64.6532 161.868 64.7159C162.284 64.7729 162.706 64.8014 163.133 64.8014C163.937 64.8014 164.519 64.6646 164.878 64.3909C165.243 64.1173 165.425 63.7325 165.425 63.2365C165.425 62.8146 165.317 62.4925 165.1 62.2701C164.883 62.0421 164.516 61.8739 163.997 61.7656L162.74 61.509C161.896 61.3266 161.292 61.0273 160.927 60.6111C160.568 60.1892 160.388 59.6476 160.388 58.9863C160.388 58.2052 160.687 57.5638 161.286 57.0621C161.89 56.5547 162.817 56.301 164.065 56.301C164.464 56.301 164.844 56.3238 165.203 56.3694C165.568 56.415 165.918 56.4835 166.255 56.5747V57.6779C165.878 57.5752 165.516 57.5011 165.168 57.4555C164.826 57.4099 164.467 57.3871 164.091 57.3871C163.504 57.3871 163.033 57.4584 162.68 57.6009C162.332 57.7377 162.081 57.9258 161.927 58.1653C161.773 58.399 161.696 58.6613 161.696 58.9521C161.696 59.3169 161.799 59.6191 162.004 59.8585C162.21 60.098 162.569 60.2747 163.082 60.3887L164.339 60.6453C165.194 60.822 165.807 61.1128 166.178 61.5176C166.554 61.9224 166.742 62.4725 166.742 63.168C166.742 64.0061 166.434 64.6703 165.818 65.1606C165.208 65.6452 164.313 65.8875 163.133 65.8875Z" fill="black"/>
<path d="M172.743 65.8875C171.796 65.8875 171.061 65.6452 170.536 65.1606C170.012 64.6703 169.749 63.8892 169.749 62.8174V56.4464L169.972 53.0685H171.118V62.5951C171.118 63.3761 171.277 63.9235 171.597 64.237C171.922 64.5506 172.403 64.7074 173.042 64.7074C173.213 64.7074 173.39 64.696 173.572 64.6731C173.754 64.6446 173.954 64.6076 174.171 64.562V65.7165C173.943 65.7735 173.709 65.8162 173.469 65.8447C173.23 65.8732 172.988 65.8875 172.743 65.8875ZM168.005 57.5752V56.4464H174.034V57.5752H168.005Z" fill="black"/>
<path d="M179.148 65.8789C178.572 65.8789 178.062 65.7735 177.617 65.5625C177.173 65.3516 176.822 65.0067 176.566 64.5278C176.309 64.0489 176.181 63.4075 176.181 62.6036V56.4464H177.549V62.5438C177.549 63.3362 177.726 63.8892 178.079 64.2028C178.433 64.5107 178.889 64.6646 179.447 64.6646C179.727 64.6646 180.018 64.6218 180.32 64.5363C180.628 64.4508 180.924 64.3168 181.209 64.1344C181.494 63.952 181.748 63.7154 181.97 63.4246V56.4464H183.338V65.725H182.184L182.09 64.7074H182.004C181.617 65.095 181.178 65.3886 180.687 65.5882C180.197 65.782 179.684 65.8789 179.148 65.8789Z" fill="black"/>
<path d="M189.769 65.8875C189.096 65.8875 188.483 65.7364 187.93 65.4342C187.377 65.1264 186.935 64.6361 186.605 63.9634C186.28 63.2906 186.117 62.3955 186.117 61.2781C186.117 60.1607 186.294 59.2343 186.648 58.4988C187.007 57.7634 187.534 57.2132 188.23 56.8483C188.925 56.4835 189.78 56.301 190.795 56.301C191.057 56.301 191.32 56.3124 191.582 56.3352C191.844 56.358 192.086 56.3865 192.309 56.4207V51.9054H193.677V65.725H192.514L192.42 64.7245H192.326C192.052 65.0608 191.696 65.3402 191.257 65.5625C190.824 65.7792 190.328 65.8875 189.769 65.8875ZM190.077 64.7074C190.493 64.7074 190.901 64.6161 191.3 64.4337C191.699 64.2513 192.035 63.9605 192.309 63.5614V57.5838C192.104 57.5325 191.864 57.4926 191.59 57.4641C191.317 57.4356 191.046 57.4213 190.778 57.4213C189.701 57.4213 188.885 57.7121 188.332 58.2936C187.785 58.8751 187.511 59.83 187.511 61.1584C187.511 62.0706 187.62 62.7861 187.836 63.3049C188.059 63.818 188.361 64.18 188.743 64.3909C189.13 64.6019 189.575 64.7074 190.077 64.7074Z" fill="black"/>
<path d="M196.943 65.725V56.4464H198.311V65.725H196.943ZM197.627 54.4282C197.319 54.4282 197.083 54.3541 196.917 54.2059C196.758 54.0519 196.678 53.841 196.678 53.573C196.678 53.2994 196.758 53.0856 196.917 52.9316C197.083 52.7777 197.319 52.7008 197.627 52.7008C197.935 52.7008 198.169 52.7777 198.328 52.9316C198.494 53.0856 198.576 53.2994 198.576 53.573C198.576 53.841 198.494 54.0519 198.328 54.2059C198.169 54.3541 197.935 54.4282 197.627 54.4282Z" fill="black"/>
<path d="M205.049 65.8875C204.251 65.8875 203.555 65.7222 202.963 65.3915C202.37 65.0551 201.911 64.5363 201.586 63.8351C201.261 63.1281 201.098 62.2131 201.098 61.09C201.098 59.9783 201.258 59.0689 201.577 58.362C201.902 57.655 202.361 57.1362 202.954 56.8056C203.547 56.4692 204.245 56.301 205.049 56.301C205.853 56.301 206.551 56.4692 207.144 56.8056C207.737 57.1362 208.193 57.655 208.513 58.362C208.838 59.0632 209 59.9726 209 61.09C209 62.2017 208.835 63.111 208.504 63.818C208.179 64.5249 207.72 65.0466 207.127 65.3829C206.54 65.7193 205.847 65.8875 205.049 65.8875ZM205.049 64.7758C205.574 64.7758 206.027 64.6617 206.409 64.4337C206.791 64.2057 207.084 63.8265 207.29 63.2963C207.501 62.7604 207.606 62.0335 207.606 61.1156C207.606 60.1807 207.501 59.4452 207.29 58.9093C207.084 58.3677 206.788 57.9857 206.4 57.7634C206.018 57.5353 205.568 57.4213 205.049 57.4213C204.525 57.4213 204.071 57.5353 203.689 57.7634C203.307 57.9857 203.011 58.3648 202.8 58.9007C202.595 59.431 202.492 60.155 202.492 61.0729C202.492 62.0022 202.595 62.7376 202.8 63.2792C203.011 63.8151 203.307 64.2 203.689 64.4337C204.071 64.6617 204.525 64.7758 205.049 64.7758Z" fill="black"/>
</svg>
