<svg width="209" height="87" viewBox="0 0 209 87" fill="none" xmlns="http://www.w3.org/2000/svg">
<path d="M43.3708 33.9219C45.1805 33.9219 46.6202 34.5105 47.6902 35.6878C48.7733 36.8651 49.3149 38.7781 49.3149 41.427V56.1563H44.52V41.6678C44.52 39.4069 43.6152 38.2765 41.8056 38.2765C41.2376 38.2765 40.6366 38.4303 40.0026 38.738C39.3685 39.0457 38.8336 39.5206 38.3977 40.1628C38.4241 40.5909 38.4373 40.9253 38.4373 41.1661V56.1563H33.7415V41.6678C33.7415 40.4504 33.5104 39.5808 33.0481 39.0591C32.5858 38.5373 31.9385 38.2765 31.1064 38.2765C30.4723 38.2765 29.8251 38.4571 29.1647 38.8183C28.5174 39.1661 27.9957 39.6945 27.5994 40.4036V56.1563H22.8046V34.263H26.8069L27.1635 36.6309H27.4211C28.808 34.8249 30.6242 33.9219 32.8698 33.9219C33.9529 33.9219 34.9039 34.156 35.7229 34.6242C36.5418 35.0925 37.1825 35.8283 37.6448 36.8316C38.3845 35.855 39.2497 35.1259 40.2403 34.6443C41.2442 34.1627 42.2877 33.9219 43.3708 33.9219Z" fill="#389e0d"/>
<path d="M57.0206 69.4014H14.823V57.8668H19.1125V64.0035H52.731V57.9694H57.0206V69.4014Z" fill="white"/>
<path d="M25.6552 86.1011V81.8115H46.1587V86.1011H25.6552Z" fill="white"/>
<path d="M17.3884 77.6676V73.8296H54.3318V77.6676H17.3884Z" fill="white"/>
<path d="M57.0206 12.7046C54.9271 11.0216 52.7584 9.65334 50.5144 8.59977C48.2841 7.5462 45.9581 6.77312 43.5362 6.28054C41.1144 5.78797 38.5762 5.54168 35.9218 5.54168C33.2673 5.54168 30.7292 5.78797 28.3073 6.28054C25.8855 6.77312 23.5594 7.5462 21.3291 8.59977C19.0852 9.65334 16.9165 11.0216 14.823 12.7046V7.03994C17.7237 4.54968 20.9597 2.75724 24.5309 1.66262C28.0884 0.554318 31.8854 0.000167847 35.9218 0.000167847C39.9582 0.000167847 43.7551 0.554318 47.3127 1.66262C50.8702 2.75724 54.1061 4.54968 57.0206 7.03994V12.7046Z" fill="white"/>
<path d="M58.7217 56.1653C60.4047 54.0719 61.7729 51.9032 62.8265 49.6592C63.8801 47.4289 64.6531 45.1028 65.1457 42.681C65.6383 40.2592 65.8846 37.721 65.8846 35.0666C65.8846 32.4121 65.6383 29.874 65.1457 27.4521C64.6531 25.0303 63.8801 22.7042 62.8265 20.4739C61.7729 18.2299 60.4047 16.0612 58.7217 13.9678H64.3863C66.8766 16.8685 68.669 20.1045 69.7636 23.6757C70.872 27.2332 71.4261 31.0301 71.4261 35.0666C71.4261 39.103 70.872 42.8999 69.7636 46.4574C68.669 50.0149 66.8766 53.2509 64.3863 56.1653H58.7217Z" fill="white"/>
<path d="M12.7045 56.1653C11.0215 54.0719 9.65322 51.9032 8.59965 49.6592C7.54608 47.4289 6.773 45.1028 6.28042 42.681C5.78784 40.2592 5.54155 37.721 5.54155 35.0666C5.54155 32.4121 5.78784 29.874 6.28042 27.4521C6.773 25.0303 7.54608 22.7042 8.59965 20.4739C9.65322 18.2299 11.0215 16.0612 12.7045 13.9678H7.03981C4.54956 16.8685 2.75712 20.1045 1.6625 23.6757C0.554196 27.2332 4.57764e-05 31.0301 4.57764e-05 35.0666C4.57764e-05 39.103 0.554196 42.8999 1.6625 46.4574C2.75712 50.0149 4.54956 53.2509 7.03981 56.1653H12.7045Z" fill="white"/>
<path d="M84.5798 42.0654V27.0965H88.1784L88.4657 28.629H88.6709C89.2 28.0452 89.8157 27.6073 90.5181 27.3154C91.2296 27.0144 92.0141 26.8639 92.8715 26.8639C93.7563 26.8639 94.5499 27.0554 95.2523 27.4386C95.9638 27.8126 96.5203 28.4237 96.9216 29.272C97.3321 30.1113 97.5373 31.2241 97.5373 32.6106V42.0654H93.2683V32.9801C93.2683 32.0861 93.0996 31.4704 92.7621 31.1329C92.4337 30.7863 91.9776 30.613 91.3938 30.613C91.1019 30.613 90.8009 30.6586 90.4907 30.7498C90.1897 30.841 89.9024 30.9778 89.6287 31.1603C89.3642 31.3427 89.1316 31.5753 88.9309 31.8581V42.0654H84.5798ZM101.779 42.0654V32.9801C101.779 32.0861 101.597 31.4704 101.232 31.1329C100.867 30.7863 100.397 30.613 99.8224 30.613C99.5031 30.613 99.1838 30.6631 98.8646 30.7635C98.5544 30.8547 98.258 31.0006 97.9752 31.2013C97.6924 31.402 97.4461 31.662 97.2363 31.9812L96.3743 29.1489C97.0402 28.3371 97.7928 27.7533 98.632 27.3975C99.4712 27.0418 100.315 26.8639 101.163 26.8639C102.121 26.8639 102.974 27.0554 103.722 27.4386C104.47 27.8217 105.058 28.4465 105.487 29.3131C105.916 30.1797 106.13 31.3245 106.13 32.7475V42.0654H101.779Z" fill="white"/>
<path d="M113.911 42.3391C112.379 42.3391 111.184 41.9423 110.326 41.1487C109.478 40.3459 109.054 39.3015 109.054 38.0153C109.054 36.6014 109.542 35.4977 110.518 34.7041C111.503 33.9105 113.09 33.4407 115.28 33.2948L118.427 33.0348L118.892 35.443L115.717 35.7029C114.878 35.7668 114.272 35.9583 113.898 36.2776C113.533 36.5969 113.35 37.0347 113.35 37.5911C113.35 38.1385 113.519 38.5626 113.857 38.8636C114.194 39.1555 114.687 39.3015 115.334 39.3015C115.736 39.3015 116.146 39.2331 116.566 39.0962C116.985 38.9503 117.368 38.704 117.715 38.3574V32.8843C117.715 32.2001 117.601 31.662 117.373 31.2697C117.154 30.8775 116.794 30.5993 116.292 30.4351C115.8 30.2618 115.138 30.1751 114.308 30.1751C113.733 30.1751 113.081 30.2253 112.351 30.3256C111.622 30.4168 110.924 30.5673 110.258 30.7771V27.4933C110.988 27.2835 111.786 27.1284 112.652 27.0281C113.528 26.9186 114.34 26.8639 115.088 26.8639C116.675 26.8639 117.975 27.06 118.988 27.4522C120.009 27.8445 120.762 28.5013 121.245 29.4226C121.729 30.3347 121.97 31.5799 121.97 33.1579V42.0654H118.386L118.085 40.574H117.879C117.432 41.1851 116.862 41.6321 116.169 41.9149C115.476 42.1977 114.723 42.3391 113.911 42.3391Z" fill="white"/>
<path d="M135.861 42.0654L130.566 34.3757L135.478 27.0965H140.13L134.985 34.8683V33.7189L140.609 42.0654H135.861ZM129.635 36.1271V32.638H132.112V36.1271H129.635ZM125.654 42.0654V19.9541H130.005V42.0654H125.654Z" fill="white"/>
<path d="M146.273 42.3391C144.741 42.3391 143.546 41.9423 142.688 41.1487C141.84 40.3459 141.416 39.3015 141.416 38.0153C141.416 36.6014 141.904 35.4977 142.88 34.7041C143.865 33.9105 145.452 33.4407 147.641 33.2948L150.788 33.0348L151.254 35.443L148.079 35.7029C147.24 35.7668 146.633 35.9583 146.259 36.2776C145.895 36.5969 145.712 37.0347 145.712 37.5911C145.712 38.1385 145.881 38.5626 146.218 38.8636C146.556 39.1555 147.048 39.3015 147.696 39.3015C148.097 39.3015 148.508 39.2331 148.928 39.0962C149.347 38.9503 149.73 38.704 150.077 38.3574V32.8843C150.077 32.2001 149.963 31.662 149.735 31.2697C149.516 30.8775 149.156 30.5993 148.654 30.4351C148.161 30.2618 147.5 30.1751 146.67 30.1751C146.095 30.1751 145.443 30.2253 144.713 30.3256C143.984 30.4168 143.286 30.5673 142.62 30.7771V27.4933C143.35 27.2835 144.148 27.1284 145.014 27.0281C145.89 26.9186 146.702 26.8639 147.45 26.8639C149.037 26.8639 150.337 27.06 151.349 27.4522C152.371 27.8445 153.124 28.5013 153.607 29.4226C154.091 30.3347 154.332 31.5799 154.332 33.1579V42.0654H150.747L150.446 40.574H150.241C149.794 41.1851 149.224 41.6321 148.531 41.9149C147.838 42.1977 147.085 42.3391 146.273 42.3391Z" fill="white"/>
<path d="M163.762 42.2706C163.197 42.2706 162.604 42.257 161.983 42.2296C161.363 42.2113 160.734 42.1794 160.095 42.1338C159.457 42.0882 158.827 42.0244 158.207 41.9423V22.2665C158.836 22.1297 159.507 22.0111 160.218 21.9107C160.939 21.8104 161.673 21.7329 162.421 21.6781C163.169 21.6234 163.904 21.596 164.624 21.596C168.3 21.596 171.073 22.4352 172.943 24.1137C174.822 25.7829 175.762 28.3918 175.762 31.9402C175.762 34.3575 175.32 36.3278 174.435 37.8511C173.55 39.3653 172.218 40.4828 170.439 41.2034C168.661 41.9149 166.435 42.2706 163.762 42.2706ZM164.912 38.6584C166.316 38.6584 167.484 38.4395 168.414 38.0016C169.354 37.5547 170.052 36.8386 170.508 35.8534C170.973 34.8592 171.206 33.5502 171.206 31.9265C171.206 30.3119 170.968 29.0121 170.494 28.0269C170.029 27.0326 169.331 26.312 168.401 25.865C167.47 25.409 166.316 25.1809 164.939 25.1809C164.592 25.1809 164.214 25.1992 163.803 25.2356C163.393 25.2721 163.01 25.3223 162.654 25.3861V38.5626C163.028 38.5991 163.397 38.6265 163.762 38.6447C164.136 38.6538 164.519 38.6584 164.912 38.6584Z" fill="white"/>
<path d="M186.626 42.3527C184.747 42.3527 183.201 42.0836 181.988 41.5455C180.774 41.0073 179.871 40.1635 179.278 39.0142C178.695 37.8648 178.403 36.3825 178.403 34.5673C178.403 32.9162 178.672 31.516 179.21 30.3667C179.757 29.2173 180.546 28.3462 181.577 27.7533C182.617 27.1603 183.876 26.8639 185.354 26.8639C186.767 26.8639 187.958 27.1649 188.925 27.7669C189.892 28.3599 190.621 29.2401 191.114 30.4077C191.607 31.5753 191.853 33.0074 191.853 34.7041V35.8398H180.893V33.3358H188.487L187.789 33.5958C187.789 32.6106 187.698 31.8262 187.515 31.2424C187.333 30.6586 187.055 30.2435 186.681 29.9972C186.316 29.7509 185.86 29.6278 185.313 29.6278C184.756 29.6278 184.286 29.7509 183.903 29.9972C183.529 30.2435 183.242 30.6586 183.041 31.2424C182.85 31.817 182.754 32.5969 182.754 33.5821V35.3335C182.754 36.2548 182.886 36.9891 183.151 37.5364C183.424 38.0746 183.885 38.4623 184.533 38.6994C185.189 38.9366 186.092 39.0552 187.242 39.0552C187.826 39.0552 188.437 39.0142 189.075 38.9321C189.723 38.8408 190.371 38.7223 191.018 38.5763V41.8465C190.225 42.0289 189.468 42.1566 188.747 42.2296C188.035 42.3117 187.328 42.3527 186.626 42.3527Z" fill="white"/>
<path d="M198.185 42.0654L192.931 27.0965H197.487L201.209 38.6174H200.894L204.616 27.0965H208.912L203.645 42.0654H198.185Z" fill="white"/>
<path d="M86.4577 65.8876C85.9903 65.8876 85.5427 65.8563 85.1151 65.7935C84.6932 65.7308 84.2828 65.6368 83.8837 65.5113V64.4167C84.3398 64.5536 84.7759 64.6533 85.1921 64.716C85.6083 64.773 86.0302 64.8015 86.4577 64.8015C87.2616 64.8015 87.8431 64.6647 88.2023 64.3911C88.5672 64.1174 88.7496 63.7326 88.7496 63.2366C88.7496 62.8147 88.6413 62.4926 88.4246 62.2702C88.208 62.0422 87.8403 61.874 87.3215 61.7657L86.0644 61.5091C85.2206 61.3267 84.6163 61.0274 84.2514 60.6112C83.8922 60.1893 83.7126 59.6477 83.7126 58.9864C83.7126 58.2053 84.012 57.5639 84.6106 57.0623C85.2149 56.5549 86.1413 56.3011 87.3899 56.3011C87.789 56.3011 88.1681 56.324 88.5273 56.3696C88.8921 56.4152 89.2428 56.4836 89.5791 56.5748V57.678C89.2028 57.5754 88.8408 57.5012 88.4931 57.4556C88.151 57.41 87.7918 57.3872 87.4155 57.3872C86.8283 57.3872 86.358 57.4585 86.0045 57.601C85.6567 57.7378 85.4059 57.926 85.252 58.1654C85.098 58.3992 85.0211 58.6614 85.0211 58.9522C85.0211 59.3171 85.1237 59.6192 85.3289 59.8587C85.5342 60.0981 85.8933 60.2748 86.4064 60.3889L87.6635 60.6454C88.5187 60.8222 89.1316 61.1129 89.5022 61.5177C89.8784 61.9225 90.0666 62.4726 90.0666 63.1682C90.0666 64.0062 89.7587 64.6704 89.143 65.1607C88.533 65.6453 87.6379 65.8876 86.4577 65.8876Z" fill="white"/>
<path d="M96.0903 65.8876C95.2922 65.8876 94.5966 65.7223 94.0037 65.3916C93.4108 65.0552 92.9518 64.5364 92.6269 63.8352C92.3019 63.1283 92.1394 62.2132 92.1394 61.0901C92.1394 59.9784 92.2991 59.0691 92.6183 58.3621C92.9433 57.6552 93.4022 57.1364 93.9951 56.8057C94.5881 56.4693 95.2865 56.3011 96.0903 56.3011C96.8942 56.3011 97.5926 56.4693 98.1855 56.8057C98.7784 57.1364 99.2345 57.6552 99.5538 58.3621C99.8787 59.0634 100.041 59.9727 100.041 61.0901C100.041 62.2018 99.8759 63.1112 99.5452 63.8181C99.2202 64.525 98.7613 65.0467 98.1684 65.3831C97.5812 65.7194 96.8885 65.8876 96.0903 65.8876ZM96.0903 64.7759C96.6148 64.7759 97.0681 64.6619 97.45 64.4338C97.832 64.2058 98.1256 63.8267 98.3309 63.2964C98.5418 62.7605 98.6473 62.0336 98.6473 61.1158C98.6473 60.1808 98.5418 59.4453 98.3309 58.9094C98.1256 58.3678 97.8292 57.9858 97.4415 57.7635C97.0595 57.5354 96.6091 57.4214 96.0903 57.4214C95.5658 57.4214 95.1126 57.5354 94.7306 57.7635C94.3486 57.9858 94.0522 58.365 93.8412 58.9009C93.636 59.4311 93.5334 60.1551 93.5334 61.073C93.5334 62.0023 93.636 62.7377 93.8412 63.2793C94.0522 63.8153 94.3486 64.2001 94.7306 64.4338C95.1126 64.6619 95.5658 64.7759 96.0903 64.7759Z" fill="white"/>
<path d="M103.197 65.7251V55.044C103.197 54.3257 103.322 53.7214 103.573 53.2311C103.829 52.7351 104.209 52.3617 104.71 52.1108C105.212 51.86 105.831 51.7345 106.566 51.7345C106.777 51.7345 106.988 51.7431 107.199 51.7602C107.415 51.7773 107.626 51.8029 107.832 51.8372V52.9831C107.638 52.9489 107.447 52.9261 107.259 52.9147C107.076 52.8976 106.891 52.889 106.703 52.889C105.979 52.889 105.44 53.0486 105.087 53.3679C104.733 53.6872 104.556 54.2259 104.556 54.9842V65.7251H103.197ZM101.452 57.5754V56.4465H107.473V57.5754H101.452Z" fill="white"/>
<path d="M112.501 65.8876C111.555 65.8876 110.819 65.6453 110.295 65.1607C109.77 64.6704 109.508 63.8894 109.508 62.8176V56.4465L109.73 53.0686H110.876V62.5952C110.876 63.3763 111.036 63.9236 111.355 64.2371C111.68 64.5507 112.162 64.7075 112.8 64.7075C112.971 64.7075 113.148 64.6961 113.331 64.6733C113.513 64.6448 113.713 64.6077 113.929 64.5621V65.7166C113.701 65.7736 113.467 65.8163 113.228 65.8449C112.988 65.8734 112.746 65.8876 112.501 65.8876ZM107.763 57.5754V56.4465H113.792V57.5754H107.763Z" fill="white"/>
<path d="M117.566 65.7251L114.846 56.4465H116.189L118.506 64.5364H118.369L120.79 56.4465H122.406L124.826 64.5364H124.672L126.998 56.4465H128.289L125.587 65.7251H123.971L121.508 57.5411H121.662L119.182 65.7251H117.566Z" fill="white"/>
<path d="M132.756 65.8791C131.884 65.8791 131.197 65.6539 130.695 65.2035C130.199 64.7531 129.951 64.1345 129.951 63.3478C129.951 62.5382 130.216 61.9082 130.746 61.4578C131.282 61.0017 132.14 60.7167 133.32 60.6027L135.809 60.3376L135.937 61.244L133.406 61.5177C132.67 61.5918 132.14 61.7714 131.815 62.0564C131.496 62.3358 131.336 62.7235 131.336 63.2195C131.336 63.7383 131.485 64.1345 131.781 64.4082C132.077 64.6818 132.519 64.8187 133.107 64.8187C133.511 64.8187 133.919 64.7331 134.329 64.5621C134.74 64.3854 135.108 64.0918 135.433 63.6813V59.585C135.433 59.0149 135.344 58.5759 135.167 58.268C134.991 57.9545 134.726 57.735 134.372 57.6096C134.019 57.4841 133.574 57.4214 133.038 57.4214C132.69 57.4214 132.294 57.4528 131.849 57.5155C131.41 57.5782 130.971 57.6837 130.532 57.8319V56.7116C130.932 56.5805 131.371 56.4807 131.849 56.4123C132.334 56.3382 132.79 56.3011 133.218 56.3011C134.004 56.3011 134.66 56.4038 135.185 56.609C135.715 56.8143 136.111 57.162 136.373 57.6523C136.641 58.1369 136.775 58.8011 136.775 59.6449V65.7251H135.629L135.527 64.6904H135.441C135.139 65.0723 134.751 65.366 134.278 65.5712C133.811 65.7764 133.303 65.8791 132.756 65.8791Z" fill="white"/>
<path d="M139.942 65.7251V56.4465H141.088L141.199 57.6865H141.284C141.604 57.2475 142.003 56.9169 142.482 56.6945C142.966 56.4665 143.471 56.3525 143.995 56.3525C144.138 56.3525 144.266 56.3582 144.38 56.3696C144.5 56.381 144.617 56.3981 144.731 56.4209V57.6865C144.6 57.6637 144.469 57.6495 144.337 57.6438C144.212 57.6381 144.075 57.6352 143.927 57.6352C143.625 57.6352 143.308 57.6837 142.978 57.7806C142.653 57.8718 142.345 58.0172 142.054 58.2167C141.763 58.4106 141.515 58.6557 141.31 58.9522V65.7251H139.942Z" fill="white"/>
<path d="M150.48 65.8876C149.517 65.8876 148.707 65.7251 148.052 65.4002C147.402 65.0695 146.911 64.5535 146.581 63.8523C146.25 63.1454 146.085 62.2218 146.085 61.0816C146.085 59.9926 146.236 59.0947 146.538 58.3878C146.846 57.6808 147.279 57.1563 147.838 56.8143C148.402 56.4722 149.069 56.3011 149.839 56.3011C150.597 56.3011 151.241 56.475 151.772 56.8228C152.307 57.1649 152.715 57.6922 152.994 58.4049C153.274 59.1118 153.413 60.0154 153.413 61.1158V61.5348H146.829V60.6027H152.404L152.105 60.8079C152.105 59.9413 152.014 59.2515 151.831 58.7384C151.655 58.2253 151.395 57.8576 151.053 57.6352C150.717 57.4072 150.306 57.2931 149.822 57.2931C149.343 57.2931 148.927 57.4043 148.573 57.6267C148.22 57.849 147.946 58.2167 147.752 58.7298C147.564 59.2429 147.47 59.9356 147.47 60.8079V61.2868C147.47 62.142 147.584 62.8261 147.812 63.3392C148.046 63.8466 148.396 64.2143 148.864 64.4424C149.331 64.6647 149.924 64.7759 150.643 64.7759C150.996 64.7759 151.361 64.7445 151.737 64.6818C152.119 64.6134 152.524 64.5193 152.952 64.3996V65.5199C152.507 65.6453 152.082 65.7365 151.677 65.7935C151.278 65.8563 150.879 65.8876 150.48 65.8876Z" fill="white"/>
<path d="M163.133 65.8876C162.666 65.8876 162.218 65.8563 161.791 65.7935C161.369 65.7308 160.958 65.6368 160.559 65.5113V64.4167C161.015 64.5536 161.451 64.6533 161.868 64.716C162.284 64.773 162.706 64.8015 163.133 64.8015C163.937 64.8015 164.519 64.6647 164.878 64.3911C165.243 64.1174 165.425 63.7326 165.425 63.2366C165.425 62.8147 165.317 62.4926 165.1 62.2702C164.883 62.0422 164.516 61.874 163.997 61.7657L162.74 61.5091C161.896 61.3267 161.292 61.0274 160.927 60.6112C160.568 60.1893 160.388 59.6477 160.388 58.9864C160.388 58.2053 160.687 57.5639 161.286 57.0623C161.89 56.5549 162.817 56.3011 164.065 56.3011C164.464 56.3011 164.844 56.324 165.203 56.3696C165.568 56.4152 165.918 56.4836 166.255 56.5748V57.678C165.878 57.5754 165.516 57.5012 165.168 57.4556C164.826 57.41 164.467 57.3872 164.091 57.3872C163.504 57.3872 163.033 57.4585 162.68 57.601C162.332 57.7378 162.081 57.926 161.927 58.1654C161.773 58.3992 161.696 58.6614 161.696 58.9522C161.696 59.3171 161.799 59.6192 162.004 59.8587C162.21 60.0981 162.569 60.2748 163.082 60.3889L164.339 60.6454C165.194 60.8222 165.807 61.1129 166.178 61.5177C166.554 61.9225 166.742 62.4726 166.742 63.1682C166.742 64.0062 166.434 64.6704 165.818 65.1607C165.208 65.6453 164.313 65.8876 163.133 65.8876Z" fill="white"/>
<path d="M172.743 65.8876C171.796 65.8876 171.061 65.6453 170.536 65.1607C170.012 64.6704 169.749 63.8894 169.749 62.8176V56.4465L169.972 53.0686H171.118V62.5952C171.118 63.3763 171.277 63.9236 171.597 64.2371C171.922 64.5507 172.403 64.7075 173.042 64.7075C173.213 64.7075 173.39 64.6961 173.572 64.6733C173.754 64.6448 173.954 64.6077 174.171 64.5621V65.7166C173.943 65.7736 173.709 65.8163 173.469 65.8449C173.23 65.8734 172.988 65.8876 172.743 65.8876ZM168.005 57.5754V56.4465H174.034V57.5754H168.005Z" fill="white"/>
<path d="M179.148 65.8791C178.572 65.8791 178.062 65.7736 177.617 65.5626C177.173 65.3517 176.822 65.0068 176.566 64.5279C176.309 64.049 176.181 63.4076 176.181 62.6038V56.4465H177.549V62.5439C177.549 63.3364 177.726 63.8894 178.079 64.2029C178.433 64.5108 178.889 64.6647 179.447 64.6647C179.727 64.6647 180.018 64.622 180.32 64.5364C180.628 64.4509 180.924 64.317 181.209 64.1345C181.494 63.9521 181.748 63.7155 181.97 63.4247V56.4465H183.338V65.7251H182.184L182.09 64.7075H182.004C181.617 65.0952 181.178 65.3888 180.687 65.5883C180.197 65.7821 179.684 65.8791 179.148 65.8791Z" fill="white"/>
<path d="M189.769 65.8876C189.096 65.8876 188.483 65.7365 187.93 65.4344C187.377 65.1265 186.935 64.6362 186.605 63.9635C186.28 63.2907 186.117 62.3957 186.117 61.2782C186.117 60.1608 186.294 59.2344 186.648 58.4989C187.007 57.7635 187.534 57.2133 188.23 56.8485C188.925 56.4836 189.78 56.3011 190.795 56.3011C191.057 56.3011 191.32 56.3125 191.582 56.3354C191.844 56.3582 192.086 56.3867 192.309 56.4209V51.9056H193.677V65.7251H192.514L192.42 64.7246H192.326C192.052 65.061 191.696 65.3403 191.257 65.5626C190.824 65.7793 190.328 65.8876 189.769 65.8876ZM190.077 64.7075C190.493 64.7075 190.901 64.6163 191.3 64.4338C191.699 64.2514 192.035 63.9606 192.309 63.5616V57.5839C192.104 57.5326 191.864 57.4927 191.59 57.4642C191.317 57.4357 191.046 57.4214 190.778 57.4214C189.701 57.4214 188.885 57.7122 188.332 58.2937C187.785 58.8752 187.511 59.8302 187.511 61.1585C187.511 62.0707 187.62 62.7862 187.836 63.305C188.059 63.8181 188.361 64.1801 188.743 64.3911C189.13 64.602 189.575 64.7075 190.077 64.7075Z" fill="white"/>
<path d="M196.943 65.7251V56.4465H198.311V65.7251H196.943ZM197.627 54.4283C197.319 54.4283 197.083 54.3542 196.917 54.206C196.758 54.052 196.678 53.8411 196.678 53.5732C196.678 53.2995 196.758 53.0857 196.917 52.9318C197.083 52.7778 197.319 52.7009 197.627 52.7009C197.935 52.7009 198.169 52.7778 198.328 52.9318C198.494 53.0857 198.576 53.2995 198.576 53.5732C198.576 53.8411 198.494 54.052 198.328 54.206C198.169 54.3542 197.935 54.4283 197.627 54.4283Z" fill="white"/>
<path d="M205.049 65.8876C204.251 65.8876 203.555 65.7223 202.963 65.3916C202.37 65.0552 201.911 64.5364 201.586 63.8352C201.261 63.1283 201.098 62.2132 201.098 61.0901C201.098 59.9784 201.258 59.0691 201.577 58.3621C201.902 57.6552 202.361 57.1364 202.954 56.8057C203.547 56.4693 204.245 56.3011 205.049 56.3011C205.853 56.3011 206.551 56.4693 207.144 56.8057C207.737 57.1364 208.193 57.6552 208.513 58.3621C208.838 59.0634 209 59.9727 209 61.0901C209 62.2018 208.835 63.1112 208.504 63.8181C208.179 64.525 207.72 65.0467 207.127 65.3831C206.54 65.7194 205.847 65.8876 205.049 65.8876ZM205.049 64.7759C205.574 64.7759 206.027 64.6619 206.409 64.4338C206.791 64.2058 207.084 63.8267 207.29 63.2964C207.501 62.7605 207.606 62.0336 207.606 61.1158C207.606 60.1808 207.501 59.4453 207.29 58.9094C207.084 58.3678 206.788 57.9858 206.4 57.7635C206.018 57.5354 205.568 57.4214 205.049 57.4214C204.525 57.4214 204.071 57.5354 203.689 57.7635C203.307 57.9858 203.011 58.365 202.8 58.9009C202.595 59.4311 202.492 60.1551 202.492 61.073C202.492 62.0023 202.595 62.7377 202.8 63.2793C203.011 63.8153 203.307 64.2001 203.689 64.4338C204.071 64.6619 204.525 64.7759 205.049 64.7759Z" fill="white"/>
</svg>
