<svg width="20" height="19" viewBox="0 0 20 19" fill="none" xmlns="http://www.w3.org/2000/svg">
<path d="M4.92115 9.5C4.92115 12.1229 7.05485 14.2566 9.6778 14.2566C12.3008 14.2566 14.4345 12.1229 14.4345 9.5C14.4345 6.87705 12.3008 4.74335 9.6778 4.74335C7.05485 4.74335 4.92115 6.87705 4.92115 9.5ZM8.7259 16.15H10.6259V19H8.7259V16.15ZM8.7259 0H10.6259V2.85H8.7259V0ZM0.175903 8.55H3.0259V10.45H0.175903V8.55ZM16.3259 8.55H19.1759V10.45H16.3259V8.55ZM3.63105 16.8891L2.28775 15.5458L4.3027 13.5308L5.646 14.8741L3.63105 16.8891ZM13.7058 4.1268L15.7217 2.1109L17.065 3.4542L15.0491 5.4701L13.7058 4.1268ZM4.3027 5.47105L2.28775 3.45515L3.632 2.11185L5.646 4.12775L4.3027 5.47105ZM17.065 15.5458L15.7217 16.8891L13.7058 14.8732L15.0491 13.5299L17.065 15.5458Z" fill="#389e0d"/>
</svg>
