<svg width="16" height="16" viewBox="0 0 16 16" fill="none" xmlns="http://www.w3.org/2000/svg">
<path d="M6 0.277322C6.09761 0.395934 6.15741 0.541094 6.17168 0.694045C6.18594 0.846995 6.154 1.00071 6.08 1.13532C5.50186 2.1968 5.19993 3.38662 5.202 4.59532C5.202 8.61632 8.48 11.8723 12.52 11.8723C13.047 11.8723 13.56 11.8173 14.053 11.7123C14.2041 11.6796 14.3615 11.6921 14.5056 11.7483C14.6497 11.8045 14.774 11.9019 14.863 12.0283C14.957 12.1598 15.0049 12.3186 14.9993 12.4801C14.9937 12.6416 14.9349 12.7967 14.832 12.9213C14.0477 13.8848 13.0582 14.661 11.9358 15.1935C10.8134 15.726 9.58632 16.0013 8.344 15.9993C3.734 15.9993 0 12.2853 0 7.70932C0 4.26532 2.114 1.31132 5.124 0.0593219C5.27394 -0.00404621 5.44039 -0.0170522 5.59835 0.0222576C5.75631 0.0615674 5.89725 0.151071 6 0.277322Z" fill="#e5e5e5"/>
<path d="M10.794 3.14748C10.8083 3.10417 10.836 3.06649 10.8729 3.03978C10.9099 3.01307 10.9544 2.99869 11 2.99869C11.0456 2.99869 11.0901 3.01307 11.1271 3.03978C11.164 3.06649 11.1917 3.10417 11.206 3.14748L11.593 4.30948C11.766 4.82748 12.172 5.23348 12.69 5.40648L13.852 5.79348C13.8953 5.80782 13.933 5.83544 13.9597 5.87242C13.9864 5.9094 14.0008 5.95386 14.0008 5.99948C14.0008 6.0451 13.9864 6.08956 13.9597 6.12654C13.933 6.16352 13.8953 6.19114 13.852 6.20548L12.69 6.59248C12.4345 6.6776 12.2024 6.82104 12.012 7.01145C11.8216 7.20186 11.6781 7.434 11.593 7.68948L11.206 8.85148C11.1917 8.89478 11.164 8.93247 11.1271 8.95918C11.0901 8.98589 11.0456 9.00027 11 9.00027C10.9544 9.00027 10.9099 8.98589 10.8729 8.95918C10.836 8.93247 10.8083 8.89478 10.794 8.85148L10.407 7.68948C10.3219 7.434 10.1784 7.20186 9.98802 7.01145C9.79761 6.82104 9.56547 6.6776 9.30999 6.59248L8.14799 6.20548C8.10469 6.19114 8.067 6.16352 8.04029 6.12654C8.01358 6.08956 7.99921 6.0451 7.99921 5.99948C7.99921 5.95386 8.01358 5.9094 8.04029 5.87242C8.067 5.83544 8.10469 5.80782 8.14799 5.79348L9.30999 5.40648C9.56547 5.32136 9.79761 5.17792 9.98802 4.9875C10.1784 4.79709 10.3219 4.56495 10.407 4.30948L10.794 3.14748ZM13.863 0.0984792C13.8729 0.0700055 13.8914 0.0453151 13.9159 0.0278408C13.9405 0.0103665 13.9699 0.000976562 14 0.000976562C14.0301 0.000976563 14.0595 0.0103665 14.0841 0.0278408C14.1086 0.0453151 14.1271 0.0700055 14.137 0.0984792L14.395 0.872479C14.51 1.21848 14.781 1.48948 15.127 1.60448L15.901 1.86248C15.9295 1.87235 15.9542 1.89085 15.9716 1.9154C15.9891 1.93996 15.9985 1.96934 15.9985 1.99948C15.9985 2.02962 15.9891 2.059 15.9716 2.08356C15.9542 2.10811 15.9295 2.12661 15.901 2.13648L15.127 2.39448C14.9565 2.4512 14.8015 2.5469 14.6745 2.67396C14.5474 2.80103 14.4517 2.95597 14.395 3.12648L14.137 3.90048C14.1271 3.92895 14.1086 3.95364 14.0841 3.97112C14.0595 3.98859 14.0301 3.99798 14 3.99798C13.9699 3.99798 13.9405 3.98859 13.9159 3.97112C13.8914 3.95364 13.8729 3.92895 13.863 3.90048L13.605 3.12648C13.5483 2.95597 13.4526 2.80103 13.3255 2.67396C13.1984 2.5469 13.0435 2.4512 12.873 2.39448L12.099 2.13648C12.0705 2.12661 12.0458 2.10811 12.0284 2.08356C12.0109 2.059 12.0015 2.02962 12.0015 1.99948C12.0015 1.96934 12.0109 1.93996 12.0284 1.9154C12.0458 1.89085 12.0705 1.87235 12.099 1.86248L12.873 1.60448C13.219 1.48948 13.49 1.21848 13.605 0.872479L13.863 0.0994792V0.0984792Z" fill="#e5e5e5"/>
</svg>
